<svg xmlns="http://www.w3.org/2000/svg" width="512" height="512" viewBox="0 0 512 512">
    <g transform="translate(0,512) scale(0.1,-0.1)">
        <path d="M3804 3873c-403-643-424-676-431-670-3 3-22 72-43 154-20 81-40 141-44 133-17-42-285-840-281-840 2 0 133 61 291 135s295 137 305 140c17 6 19-4 21-138l3-144 612 246c337 135 611 247 609 249-3 2-152 8-333 14-180 5-329 11-331 13s1e2 153 227 335c128 183 226 330 219 327-7-2-166-86-352-186-187-99-344-181-349-181-4 0-6 8-3 18 2 9 48 211 101 447 52 237 98 436 1e2 443 2 6 3 12 1 12s-146-228-322-507z" />
        <path d="M1949 4017l-155-70 83-276c46-151 80-278 76-282-5-4-399-184-878-399-478-215-874-395-878-4e2-7-6 90-245 108-268 1-1 398 176 881 394s884 398 889 4e2c6 2 77-106 160-241 82-135 153-245 157-245 15 0 473 209 475 217 2 5-44 163-101 352l-104 344-59 57c-32 31-157 153-278 272l-220 215-156-70z" />
        <path d="M1990 2340v-1e2l-445-2-445-3 25-53c105-227 354-470 601-587 61-29 164-66 252-91 9-2 12-45 12-169v-165h290c160 0 290-3 290-6 0-4-25-56-56-118-99-197-248-392-429-564l-97-92h-129-129v-90-90h1420 1420v90 90h-138-139l-94 78c-152 127-284 273-377 417-42 64-142 260-142 278 0 4 142 7 315 7h315v146 145l58 25c153 66 312 163 460 281l73 58-43 38c-113 102-294 204-453 255l-90 30-3 146-3 146H3150 1990v-1e2z" />
    </g>
</svg>