<?xml version="1.0" standalone="no"?>
<!DOCTYPE svg PUBLIC "-//W3C//DTD SVG 20010904//EN"
 "http://www.w3.org/TR/2001/REC-SVG-20010904/DTD/svg10.dtd">
<svg version="1.0" xmlns="http://www.w3.org/2000/svg"
 width="512.000000pt" height="512.000000pt" viewBox="0 0 512.000000 512.000000"
 preserveAspectRatio="xMidYMid meet">
<metadata>
Created by potrace 1.14, written by Peter Selinger 2001-2017
</metadata>
<g transform="translate(0.000000,512.000000) scale(0.100000,-0.100000)"
fill="#000000" stroke="none">
<path d="M3804 3873 c-403 -643 -424 -676 -431 -670 -3 3 -22 72 -43 154 -20
81 -40 141 -44 133 -17 -42 -285 -840 -281 -840 2 0 133 61 291 135 158 74
295 137 305 140 17 6 19 -4 21 -138 l3 -144 612 246 c337 135 611 247 609 249
-3 2 -152 8 -333 14 -180 5 -329 11 -331 13 -2 2 100 153 227 335 128 183 226
330 219 327 -7 -2 -166 -86 -352 -186 -187 -99 -344 -181 -349 -181 -4 0 -6 8
-3 18 2 9 48 211 101 447 52 237 98 436 100 443 2 6 3 12 1 12 -2 0 -146 -228
-322 -507z"/>
<path d="M1949 4017 l-155 -70 83 -276 c46 -151 80 -278 76 -282 -5 -4 -399
-184 -878 -399 -478 -215 -874 -395 -878 -400 -7 -6 90 -245 108 -268 1 -1
398 176 881 394 483 218 884 398 889 400 6 2 77 -106 160 -241 82 -135 153
-245 157 -245 15 0 473 209 475 217 2 5 -44 163 -101 352 l-104 344 -59 57
c-32 31 -157 153 -278 272 l-220 215 -156 -70z"/>
<path d="M1990 2340 l0 -100 -445 -2 -445 -3 25 -53 c105 -227 354 -470 601
-587 61 -29 164 -66 252 -91 9 -2 12 -45 12 -169 l0 -165 290 0 c160 0 290 -3
290 -6 0 -4 -25 -56 -56 -118 -99 -197 -248 -392 -429 -564 l-97 -92 -129 0
-129 0 0 -90 0 -90 1420 0 1420 0 0 90 0 90 -138 0 -139 0 -94 78 c-152 127
-284 273 -377 417 -42 64 -142 260 -142 278 0 4 142 7 315 7 l315 0 0 146 0
145 58 25 c153 66 312 163 460 281 l73 58 -43 38 c-113 102 -294 204 -453 255
l-90 30 -3 146 -3 146 -1159 0 -1160 0 0 -100z"/>
</g>
</svg>
