<svg viewBox="0 0 1536 512" xmlns="http://www.w3.org/2000/svg">
<path d="m1110 513h-1108.9v-511.9h1535.9v511.9h-426.97m-295.62-266.09c0.79681-0.21783 1.6463-0.32378 2.3828-0.66989 17.097-8.0351 34.172-16.117 51.281-24.127 2.1346-0.99934 4.4353-1.6441 7.5009-2.7594v28.888c40.676-16.302 80.548-32.283 120.42-48.263-0.075196-0.28516-0.15033-0.57033-0.22546-0.85548-21.607-0.65642-43.213-1.3128-65.975-2.0044 15.125-21.808 29.454-42.47 43.784-63.132-0.41058-0.48645-0.82123-0.97292-1.2318-1.4594-22.225 11.76-44.451 23.519-66.676 35.279-0.28156-0.41025-0.56311-0.8205-0.8446-1.2307 6.3005-28.299 12.601-56.598 18.901-84.897-0.59125-0.17085-1.1825-0.34171-1.7737-0.51257-23.544 37.408-47.088 74.816-71.262 113.22-0.98584-2.5108-1.5682-3.6456-1.8818-4.8504-1.7027-6.5405-3.3084-13.106-5.0306-19.641-0.26129-0.99141-0.95788-1.8681-1.4531-2.7979-0.74963 0.88698-1.8337 1.6554-2.1968 2.6794-3.3715 9.5084-6.6395 19.054-9.8976 28.602-5.5513 16.269-11.074 32.549-16.501 48.522 0 0 0.20801 0.27058 0.20801 0.27058s-0.32294-0.18565 0.4718-0.26668m110.12 244.66h44.704v-17.321c-7.8472 0-15.339 0.1879-22.813-0.10614-2.4771-0.097473-5.4-0.81128-7.2797-2.3018-18.819-14.923-35.581-31.819-47.78-52.707-4.2078-7.2049-7.4468-14.975-11.661-23.574h64.081c0-8.7604 0.12915-16.897-0.067993-25.027-0.071777-2.9593 0.9259-4.6103 3.6241-5.6943 4.5999-1.8481 9.4315-3.4068 13.594-6.0034 14.116-8.8051 27.982-18.012 42.337-27.32-2.0682-2.2132-2.9647-3.4276-4.0995-4.3485-14.767-11.983-30.742-21.842-49.315-26.701-4.6356-1.2126-6.5188-3.0302-6.1995-8.0384 0.48279-7.5742 0.12598-15.202 0.12598-22.793h-231.64v19.741h-88.217c0.63592 1.8864 0.80255 3.243 1.4804 4.2582 6.6919 10.022 12.515 20.829 20.419 29.795 16.579 18.807 37.51 31.364 61.849 37.792 3.6278 0.95801 4.7873 2.3287 4.6896 5.9925-0.24719 9.2726-0.082031 18.556-0.082031 28.486h57.725c0 1.1401 0.15149 1.6846-0.023743 2.0868-1.5222 3.4925-2.9592 7.0327-4.6895 10.422-11.839 23.192-28.249 42.848-47.09 60.607-3.95 3.7231-8.18 6.182-14.096 5.5614-5.6926-0.59714-11.497-0.12912-17.296-0.12912v17.321c79.138 0 157.93 0 237.72 3.1e-5m-233.41-308.73c-24.632 11.009-49.267 22.01-73.894 33.029-22.211 9.9384-44.422 19.875-66.612 29.861-6.1495 2.7672-12.223 5.7039-18.552 8.6665 4.0966 9.0294 7.9531 17.529 11.861 26.142 59.553-26.811 118.53-53.363 177.67-79.989 10.204 16.591 20.234 32.899 30.427 49.472 16.131-7.2652 31.914-14.374 47.871-21.56-6.4918-21.607-12.711-42.846-19.365-63.948-1.1824-3.7495-3.6555-7.4367-6.4301-10.275-8.4811-8.6763-17.451-16.873-26.132-25.356-7.0312-6.8712-14.038-13.776-20.81-20.899-2.4275-2.553-4.3674-3.129-7.6386-1.4875-7.5469 3.7871-15.198 7.4305-23.049 10.516-3.3677 1.3236-3.2753 2.5814-2.3803 5.4922 4.905 15.953 9.4341 32.022 14.436 47.943 1.0597 3.3727-0.13727 4.5064-2.7237 5.6407-4.7021 2.0621-9.3599 4.2253-14.683 6.7538z" fill="#005EB8"/>
<path d="m924 491.57c-79.292-3.1e-5 -158.08-3.1e-5 -237.22-3.1e-5v-17.321c5.7991 0 11.603-0.46802 17.296 0.12912 5.9162 0.62058 10.146-1.8383 14.096-5.5614 18.841-17.759 35.251-37.416 47.09-60.607 1.7302-3.3893 3.1673-6.9296 4.6895-10.422 0.17523-0.40213 0.023743-0.94669 0.023743-2.0868h-57.725c0-9.9299-0.16516-19.213 0.082031-28.486 0.097656-3.6637-1.0618-5.0345-4.6896-5.9925-24.339-6.4273-45.269-18.985-61.849-37.792-7.9045-8.9664-13.728-19.773-20.419-29.795-0.67786-1.0152-0.84448-2.3718-1.4804-4.2582h88.217v-19.741h231.64c0 7.5908 0.35681 15.218-0.12598 22.793-0.31928 5.0082 1.564 6.8259 6.1995 8.0384 18.573 4.8583 34.548 14.718 49.315 26.701 1.1348 0.92087 2.0313 2.1353 4.0995 4.3485-14.355 9.3087-28.221 18.515-42.337 27.32-4.1627 2.5965-8.9943 4.1553-13.594 6.0034-2.6982 1.084-3.6959 2.735-3.6241 5.6943 0.19714 8.1292 0.067993 16.266 0.067993 25.027h-64.081c4.2137 8.5981 7.4528 16.369 11.661 23.574 12.199 20.888 28.961 37.785 47.78 52.707 1.8797 1.4905 4.8026 2.2043 7.2797 2.3018 7.4733 0.29404 14.966 0.10614 22.813 0.10614v17.321h-45.204z" fill="#FDFDFE"/>
<path d="m691.41 182.64c4.9996-2.3247 9.6574-4.488 14.36-6.55 2.5864-1.1343 3.7834-2.2679 2.7237-5.6407-5.0021-15.921-9.5313-31.99-14.436-47.943-0.89502-2.9108-0.98743-4.1686 2.3803-5.4922 7.8511-3.0856 15.503-6.729 23.049-10.516 3.2712-1.6415 5.2111-1.0655 7.6386 1.4875 6.7728 7.1227 13.779 14.028 20.81 20.899 8.6813 8.4837 17.651 16.68 26.132 25.356 2.7747 2.8385 5.2477 6.5257 6.4301 10.275 6.6544 21.102 12.873 42.341 19.365 63.948-15.957 7.1868-31.74 14.295-47.871 21.56-10.193-16.573-20.223-32.88-30.427-49.472-59.144 26.626-118.12 53.179-177.67 79.989-3.9078-8.613-7.7642-17.113-11.861-26.142 6.3295-2.9625 12.403-5.8992 18.552-8.6665 22.19-9.9852 44.401-19.922 66.612-29.861 24.627-11.019 49.262-22.02 74.217-33.233z" fill="#FBFCFE"/>
<path d="m813.6 247.21c5.5345-16.275 11.057-32.555 16.608-48.824 3.2581-9.5483 6.5261-19.094 9.8976-28.602 0.3631-1.024 1.4471-1.7924 2.1968-2.6794 0.49524 0.92976 1.1918 1.8065 1.4531 2.7979 1.7222 6.5352 3.3279 13.101 5.0306 19.641 0.31366 1.2048 0.896 2.3396 1.8818 4.8504 24.174-38.409 47.718-75.817 71.262-113.22 0.59119 0.17085 1.1824 0.34171 1.7737 0.51257-6.3005 28.299-12.601 56.598-18.901 84.897 0.28149 0.41025 0.56305 0.8205 0.8446 1.2307 22.225-11.76 44.451-23.519 66.676-35.279 0.41058 0.48646 0.82123 0.97293 1.2318 1.4594-14.33 20.662-28.66 41.324-43.784 63.132 22.762 0.69153 44.369 1.3479 65.975 2.0044 0.075134 0.28516 0.15027 0.57033 0.22546 0.85548-39.872 15.98-79.745 31.961-120.42 48.263v-28.888c-3.0656 1.1154-5.3663 1.7601-7.5009 2.7594-17.109 8.0098-34.184 16.091-51.281 24.127-0.73651 0.34612-1.586 0.45206-2.7453 0.76337-0.36255 0.09346-0.42419 0.20425-0.42419 0.20425z" fill="#F9FBFD"/>
<path d="m813.62 247.05c-0.034851-0.052948 0.28809 0.1327 0.28809 0.1327s-0.20801-0.27058-0.26141-0.11977c-0.053467 0.15082 0.008178 0.040024-0.026673-0.012939z" fill="#F9FBFD"/>
</svg>